HIERARCHY
ROOT Hips
{
  OFFSET 0 0.240689 0
  CHANNELS 6 Xposition Yposition Zposition Zrotation Xrotation Yrotation
  JOINT Bip01_Spine0
  {
    OFFSET 0 -24.7459 49.7988
    CHANNELS 6 Xposition Yposition Zposition Zrotation Xrotation Yrotation
    JOINT Bip01_Pelvis
    {
      OFFSET 0 0 0
      CHANNELS 6 Xposition Yposition Zposition Zrotation Xrotation Yrotation
      JOINT Bip01_Spine0_Tail
      {
        OFFSET -6.47486 -3.86022 0
        CHANNELS 6 Xposition Yposition Zposition Zrotation Xrotation Yrotation
        JOINT Bip01_Spine0_Tail1
        {
          OFFSET 10.3837 -0.00825882 0
          CHANNELS 6 Xposition Yposition Zposition Zrotation Xrotation Yrotation
          JOINT Bip01_Spine0_Tail2
          {
            OFFSET 10.3837 -0.00826263 0
            CHANNELS 6 Xposition Yposition Zposition Zrotation Xrotation Yrotation
            JOINT Bip01_Spine0_Tail3
            {
              OFFSET 10.3837 -0.00825882 0
              CHANNELS 6 Xposition Yposition Zposition Zrotation Xrotation Yrotation
              JOINT Bip01_Spine0_Tail4
              {
                OFFSET 10.3837 -0.00826263 0
                CHANNELS 6 Xposition Yposition Zposition Zrotation Xrotation Yrotation
                End Site
                {
                  OFFSET 0 0 0
                }
              }
            }
          }
        }
      }
      JOINT Bip01_R_Thigh
      {
        OFFSET 0 -1.52588e-005 -8.75617
        CHANNELS 6 Xposition Yposition Zposition Zrotation Xrotation Yrotation
        JOINT Bip01_R_Calf
        {
          OFFSET 19.7638 0 0
          CHANNELS 6 Xposition Yposition Zposition Zrotation Xrotation Yrotation
          JOINT Bip01_R_Foot
          {
            OFFSET 18.6534 0 0
            CHANNELS 6 Xposition Yposition Zposition Zrotation Xrotation Yrotation
            JOINT Bip01_R_Toe0
            {
              OFFSET 5.09145 13.9567 0
              CHANNELS 6 Xposition Yposition Zposition Zrotation Xrotation Yrotation
              JOINT Bip01_R_Toe01
              {
                OFFSET 4.28803 0 0
                CHANNELS 6 Xposition Yposition Zposition Zrotation Xrotation Yrotation
                JOINT Bip01_R_Toe02
                {
                  OFFSET 3.85801 0 0
                  CHANNELS 6 Xposition Yposition Zposition Zrotation Xrotation Yrotation
                  End Site
                  {
                    OFFSET 0 0 0
                  }
                }
              }
            }
          }
        }
      }
      JOINT Bip01_L_Thigh
      {
        OFFSET 0 1.52588e-005 8.75617
        CHANNELS 6 Xposition Yposition Zposition Zrotation Xrotation Yrotation
        JOINT Bip01_L_Calf
        {
          OFFSET 19.7638 0 0
          CHANNELS 6 Xposition Yposition Zposition Zrotation Xrotation Yrotation
          JOINT Bip01_L_Foot
          {
            OFFSET 18.6534 0 0
            CHANNELS 6 Xposition Yposition Zposition Zrotation Xrotation Yrotation
            JOINT Bip01_L_Toe0
            {
              OFFSET 5.09144 13.9567 0
              CHANNELS 6 Xposition Yposition Zposition Zrotation Xrotation Yrotation
              JOINT Bip01_L_Toe01
              {
                OFFSET 4.28802 0 0
                CHANNELS 6 Xposition Yposition Zposition Zrotation Xrotation Yrotation
                JOINT Bip01_L_Toe02
                {
                  OFFSET 3.85801 0 0
                  CHANNELS 6 Xposition Yposition Zposition Zrotation Xrotation Yrotation
                  End Site
                  {
                    OFFSET 0 0 0
                  }
                }
              }
            }
          }
        }
      }
      JOINT Bip01_Spine
      {
        OFFSET 9.14835 -0.00640869 -1.1e-005
        CHANNELS 6 Xposition Yposition Zposition Zrotation Xrotation Yrotation
        JOINT Bip01_Spine1
        {
          OFFSET 8.04366 -0.00638199 0
          CHANNELS 6 Xposition Yposition Zposition Zrotation Xrotation Yrotation
          JOINT Bip01_Spine2
          {
            OFFSET 8.04367 -0.00639343 0
            CHANNELS 6 Xposition Yposition Zposition Zrotation Xrotation Yrotation
            JOINT Bip01_Spine3
            {
              OFFSET 8.04304 -0.00831222 0
              CHANNELS 6 Xposition Yposition Zposition Zrotation Xrotation Yrotation
              JOINT Bip01_Neck
              {
                OFFSET 10.6685 1.06813 0
                CHANNELS 6 Xposition Yposition Zposition Zrotation Xrotation Yrotation
                JOINT Bip01_R_Clavicle
                {
                  OFFSET -3.21661 -4.89635 -9.04802
                  CHANNELS 6 Xposition Yposition Zposition Zrotation Xrotation Yrotation
                  JOINT Bip01_R_UpperArm
                  {
                    OFFSET 19.0492 0 0
                    CHANNELS 6 Xposition Yposition Zposition Zrotation Xrotation Yrotation
                    JOINT Bip01_R_Forearm
                    {
                      OFFSET 10.3706 0 0
                      CHANNELS 6 Xposition Yposition Zposition Zrotation Xrotation Yrotation
                      JOINT Bip01_R_Hand
                      {
                        OFFSET 22.8632 0 0
                        CHANNELS 6 Xposition Yposition Zposition Zrotation Xrotation Yrotation
                        JOINT Bip01_R_Finger0
                        {
                          OFFSET 6.48259 0.103651 0.504496
                          CHANNELS 6 Xposition Yposition Zposition Zrotation Xrotation Yrotation
                          JOINT Bip01_R_Finger01
                          {
                            OFFSET 3.66847 0 0
                            CHANNELS 6 Xposition Yposition Zposition Zrotation Xrotation Yrotation
                            End Site
                            {
                              OFFSET 0 0 0
                            }
                          }
                        }
                      }
                    }
                  }
                }
                JOINT Bip01_L_Clavicle
                {
                  OFFSET -3.21661 -4.89641 9.04797
                  CHANNELS 6 Xposition Yposition Zposition Zrotation Xrotation Yrotation
                  JOINT Bip01_L_UpperArm
                  {
                    OFFSET 19.0492 0 0
                    CHANNELS 6 Xposition Yposition Zposition Zrotation Xrotation Yrotation
                    JOINT Bip01_L_Forearm
                    {
                      OFFSET 10.3706 0 0
                      CHANNELS 6 Xposition Yposition Zposition Zrotation Xrotation Yrotation
                      JOINT Bip01_L_Hand
                      {
                        OFFSET 22.8631 0 0
                        CHANNELS 6 Xposition Yposition Zposition Zrotation Xrotation Yrotation
                        JOINT Bip01_L_Finger0
                        {
                          OFFSET 6.48257 0.103655 -0.504492
                          CHANNELS 6 Xposition Yposition Zposition Zrotation Xrotation Yrotation
                          JOINT Bip01_L_Finger01
                          {
                            OFFSET 3.66844 0 0
                            CHANNELS 6 Xposition Yposition Zposition Zrotation Xrotation Yrotation
                            End Site
                            {
                              OFFSET 0 0 0
                            }
                          }
                        }
                      }
                    }
                  }
                }
                JOINT Bip01_Neck1
                {
                  OFFSET 7.52459 -0.00656509 0
                  CHANNELS 6 Xposition Yposition Zposition Zrotation Xrotation Yrotation
                  JOINT Bip01_Neck2
                  {
                    OFFSET 8.4783 -0.00588226 0
                    CHANNELS 6 Xposition Yposition Zposition Zrotation Xrotation Yrotation
                    JOINT Bip01_Head
                    {
                      OFFSET 8.41606 0 0
                      CHANNELS 6 Xposition Yposition Zposition Zrotation Xrotation Yrotation
                      JOINT EyesBlue
                      {
                        OFFSET 0 0 0
                        CHANNELS 6 Xposition Yposition Zposition Zrotation Xrotation Yrotation
                        JOINT EyesBlue_2
                        {
                          OFFSET 0 -0.500007 0
                          CHANNELS 6 Xposition Yposition Zposition Zrotation Xrotation Yrotation
                          End Site
                          {
                            OFFSET 0 0 0
                          }
                        }
                      }
                      JOINT Bip01_Head2_Eyeleds
                      {
                        OFFSET 6.52751 7.61746 2.2e-005
                        CHANNELS 6 Xposition Yposition Zposition Zrotation Xrotation Yrotation
                        End Site
                        {
                          OFFSET 0 0 0
                        }
                      }
                      JOINT Bip01_Head_Muzzle
                      {
                        OFFSET 2.88628 13.9448 3.88994
                        CHANNELS 6 Xposition Yposition Zposition Zrotation Xrotation Yrotation
                        End Site
                        {
                          OFFSET 0 0 0
                        }
                      }
                      JOINT Bip01_Head1_Jaw
                      {
                        OFFSET 0.271065 1.32405 0
                        CHANNELS 6 Xposition Yposition Zposition Zrotation Xrotation Yrotation
                        JOINT _Bip01_Head11_TungeControler
                        {
                          OFFSET 4.61616 5.82872 0
                          CHANNELS 6 Xposition Yposition Zposition Zrotation Xrotation Yrotation
                          JOINT _Bip01_Ponytail3_tunge
                          {
                            OFFSET 5.17785 2.98805 0
                            CHANNELS 6 Xposition Yposition Zposition Zrotation Xrotation Yrotation
                            JOINT Bip01_Ponytail31
                            {
                              OFFSET 5.57569 0 0
                              CHANNELS 6 Xposition Yposition Zposition Zrotation Xrotation Yrotation
                              JOINT Bip01_Ponytail32
                              {
                                OFFSET 2.93165 0 0
                                CHANNELS 6 Xposition Yposition Zposition Zrotation Xrotation Yrotation
                                JOINT Bip01_Ponytail3Nub
                                {
                                  OFFSET 3.30155 0 0
                                  CHANNELS 6 Xposition Yposition Zposition Zrotation Xrotation Yrotation
                                  End Site
                                  {
                                    OFFSET 0 0 0
                                  }
                                }
                              }
                            }
                          }
                        }
                        JOINT Bip01_Head_JawNub
                        {
                          OFFSET 15.5776 -0.000389099 0
                          CHANNELS 6 Xposition Yposition Zposition Zrotation Xrotation Yrotation
                          End Site
                          {
                            OFFSET 0 0 0
                          }
                        }
                      }
                      JOINT Bip01_Ponytail2
                      {
                        OFFSET 9.40334 1.03973 -6.51764
                        CHANNELS 6 Xposition Yposition Zposition Zrotation Xrotation Yrotation
                        JOINT Bip01_Ponytail21
                        {
                          OFFSET 2.77018 -0.00640106 1.33514e-005
                          CHANNELS 6 Xposition Yposition Zposition Zrotation Xrotation Yrotation
                          End Site
                          {
                            OFFSET 0 0 0
                          }
                        }
                      }
                      JOINT Bip01_Ponytail1
                      {
                        OFFSET 9.40368 1.03969 6.51768
                        CHANNELS 6 Xposition Yposition Zposition Zrotation Xrotation Yrotation
                        JOINT Bip01_Ponytail11
                        {
                          OFFSET 2.77018 -0.00640487 0
                          CHANNELS 6 Xposition Yposition Zposition Zrotation Xrotation Yrotation
                          End Site
                          {
                            OFFSET 0 0 0
                          }
                        }
                      }
                    }
                  }
                }
              }
            }
          }
        }
      }
    }
  }
}
MOTION
Frames:	3
Frame Time:	0.0333333
-1.19167e-005 0 -311.975 -0 -90 -0 0.001396 -24.7444 40.387 90.0004 -0.000467875 76.9702 -3.57628e-007 4.36557e-011 5.68434e-014 -90 9.03228e-006 -101.38 -6.35596 -3.85849 1.28015 -158.102 -14.7902 -22.6049 10.383 -0.00817156 -7.53403e-005 12.5914 2.35454 -0.0780555 10.3817 -0.00803498 0.000203609 8.4757 1.2034 -0.264278 10.3842 -0.00817013 0.000713348 12.6917 -3.3975 2.57358 10.3828 -0.00794697 0.00186729 15.436 -11.3769 -1.38056 9.53674e-006 -1.32322e-005 -8.75617 -120.781 -10.3563 -179.514 19.7638 1.90735e-006 -8.9407e-007 -95.1472 -0.000139012 0.00326061 18.6534 4.29153e-006 2.6226e-006 41.6496 8.83733 -1.57036 5.09144 13.9567 -1.28465e-006 66.5909 4.38523 -0.939202 4.288 -2.84217e-014 -1.90735e-006 9.8276 0.000406776 0.000728874 3.85804 -7.62939e-006 1.43051e-006 -52.125 -9.29448e-006 7.47888e-006 -1.52588e-005 1.3113e-005 8.75617 -125.7 -9.09442 169.655 19.7638 1.90735e-006 2.98023e-007 -107.537 0.00055021 -0.00354044 18.6534 -7.6294e-006 1.78814e-007 45.4488 -7.45343 -0.759451 5.09144 13.9567 -1.38944e-006 84.419 -3.16671 3.86547 4.28801 1.14441e-005 2.86102e-006 -6.15032 0.00191632 0.0017191 3.858 -5.72205e-006 4.76838e-007 -2.5 -1.76167e-005 -9.85797e-007 8.96907 -0.0062148 -1.80446 4.12971 1.53642 22.4542 8.04382 -0.00629157 9.15527e-005 -0.673731 -0.039051 -6.06516 8.04383 -0.00629949 9.79738e-005 9.58157 -0.19993 -2.56909 8.04404 -0.00830781 0.000174522 18.0065 -1.66162 -3.23879 10.6701 1.06797 2.07683e-006 2.10019 -9.00034e-007 -1.71344e-005 -4.40297 -3.86621 -9.04794 -6.07287 -89.6311 -75.4295 19.0491 -2.10851e-006 6.48499e-005 90.3104 -1.97215 -90.2747 10.3706 2.67029e-005 -9.5365e-007 -131.03 -3.35717e-005 4.01719e-005 22.8631 1.52588e-005 -3.8147e-006 2.78979 4.90492 4.02107 6.48257 0.103603 0.504504 -70.9505 -2.33127 -15.327 3.66843 -3.8147e-006 2.32458e-006 24.8576 9.32002e-006 1.00908e-005 -4.40275 -3.86622 9.04783 177.828 85.4492 -137.105 19.0492 -9.38772e-007 2.67029e-005 79.4168 34.1187 96.1281 10.3705 -5.72204e-006 -1.19209e-006 -108.849 0.000778597 -0.00456123 22.8631 3.8147e-006 4.76837e-007 5.58128 -2.75837 -5.02217 6.48255 0.103668 -0.504497 -77.3163 1.18442 15.5432 3.66846 -1.14441e-005 9.53675e-006 23.5682 0.000176162 0.000117953 7.52527 -0.00664006 2.71653e-005 -8.1598 0.00292634 0.00933685 8.47868 -0.00548315 9.13597e-005 6.32379 0.00776758 0.0040988 8.41604 8.58307e-006 5.96046e-007 -104.938 -1.27294 -0.254911 -1.90735e-006 1.52588e-005 -1.49012e-006 -23.1098 1.37701e-015 90 8.86574e-009 -0.5 -6.41383e-008 35.6516 90 54.3484 -3.8147e-006 1.14441e-005 1.60956e-006 -107.777 7.01671e-015 -180 2.88629 13.9448 3.88993 -22.989 1.3702e-015 90 -3.8147e-006 1.14441e-005 1.60956e-006 -73.906 -7.01671e-015 -180 -7.62939e-006 -1.90735e-006 1.60397e-006 -133.095 2.72445e-005 -4.15226e-005 0 -5.68434e-014 -1.34762e-006 154.957 -2.72093 -6.7604 7.38964e-013 1.04904e-005 -4.76833e-007 -13.0146 -7.97516 -4.54403 3.8147e-006 -1.14441e-005 -3.33786e-006 -25.1518 -11.7761 -12.6897 3.8147e-006 3.8147e-006 -1.19209e-006 -26.1943 1.28274e-008 9.67562e-007 15.5776 -0.000396728 -4.79862e-006 -3.18055e-015 -4.25135e-017 -1.2424e-017 9.40367 1.03981 -6.51606 -11.4361 -29.0478 32.988 2.77012 -0.00605392 0.00208092 2.2712 -18.5168 -0.512577 9.40405 1.03969 6.5162 -11.4475 29.0752 -33.0298 2.77013 -0.00603104 -0.00202179 2.22072 18.4612 0.542347 
-1.19167e-005 0 -326.906 -0 -90 -0 0.001396 -24.7444 39.2735 90.0005 -0.000226047 68.7094 -3.57628e-007 4.36557e-011 5.68434e-014 -90 9.0267e-006 -101.373 -6.35527 -3.85849 1.28228 -159.627 -13.9746 -25.0419 10.383 -0.00817156 -7.53403e-005 16.0815 2.77123 -2.28951 10.3817 -0.00803498 0.000203609 13.4158 1.68145 -2.43374 10.3842 -0.00817013 0.000713348 17.976 -2.63778 0.828786 10.3828 -0.00794697 0.00186729 20.2496 -10.9285 -2.48419 9.53674e-006 -1.32322e-005 -8.75617 -117.388 -7.28257 -177.534 19.7638 1.90735e-006 -8.9407e-007 -94.1308 -0.000108382 0.0032606 18.6534 4.29153e-006 2.6226e-006 31.7837 11.6001 2.29573 5.09144 13.9567 -1.1681e-006 83.4402 3.49975 -3.08648 4.288 -2.84217e-014 -1.90735e-006 17.1491 0.000528788 0.000670903 3.85804 -7.62939e-006 1.43052e-006 -27.0617 -3.60206e-005 -5.11487e-006 -1.52588e-005 1.3113e-005 8.75617 -120.308 -12.6717 167.519 19.7638 1.90735e-006 2.98023e-007 -99.0882 0.000280442 -0.00354185 18.6534 -7.6294e-006 1.78814e-007 31.9008 -11.0749 -3.36575 5.09144 13.9567 -1.63127e-006 90.671 -3.03831 3.95221 4.28801 1.14441e-005 2.86102e-006 11.3881 0.00233848 0.00106365 3.858 -5.72205e-006 4.76837e-007 -2.5 -1.29453e-005 -7.51839e-007 8.96871 -0.0062148 -1.80771 6.32492 2.36289 21.6858 8.04382 -0.00629157 9.15527e-005 2.00388 -0.324194 -6.07876 8.04383 -0.00629949 9.79739e-005 10.7535 -0.257216 -2.58935 8.04404 -0.00830781 0.00017452 18.906 -1.72111 -3.238 10.6701 1.06797 2.07419e-006 2.10019 -9.66517e-007 -1.71292e-005 -4.38432 -3.88689 -9.04758 -178.732 -86.0971 113.046 19.0491 -2.10851e-006 6.48499e-005 90.9086 -23.245 -89.9813 10.3706 2.67029e-005 -9.53674e-007 -112.606 8.04395e-007 2.46776e-006 22.8631 1.52588e-005 -3.8147e-006 6.83327 9.43625 16.5074 6.48257 0.103603 0.504504 -70.5788 -2.43286 -15.2555 3.66843 -3.8147e-006 2.32458e-006 21.0247 4.32155e-006 9.57462e-006 -4.38566 -3.88373 9.04818 177.152 85.1148 -135.571 19.0492 -9.38772e-007 2.67029e-005 77.2304 37.9314 96.5807 10.3705 -5.72204e-006 -1.19209e-006 -86.0676 -0.000158901 -0.004574 22.8631 3.8147e-006 4.76837e-007 -4.5885 -6.28994 -7.88282 6.48255 0.103668 -0.504497 -76.1237 3.67604 14.6043 3.66846 -1.14441e-005 9.53675e-006 16.0098 0.000163619 0.000140794 7.52527 -0.00664006 2.71653e-005 -9.38085 -0.0342461 -0.1065 8.47868 -0.00548315 9.13599e-005 2.26199 -0.0895987 -0.0266635 8.41604 8.58307e-006 5.96045e-007 -106.983 -2.20058 -0.872275 -1.90735e-006 1.52588e-005 -1.49012e-006 -23.1098 1.37701e-015 90 7.42998e-009 -0.5 -5.50102e-008 33.1473 90 56.8527 -3.8147e-006 1.14441e-005 1.60956e-006 -106.625 7.01671e-015 -180 2.88629 13.9448 3.88993 -22.989 1.3702e-015 90 -3.8147e-006 1.14441e-005 1.60956e-006 -73.906 -7.01671e-015 -180 -7.62939e-006 -1.90735e-006 1.60397e-006 -137.87 3.64306e-005 -3.23366e-005 -5.68434e-014 -8.52651e-014 -1.34762e-006 159.295 -3.26499 -6.61437 6.25278e-013 1.04904e-005 -4.76837e-007 -13.0146 -7.97518 -4.54403 3.8147e-006 -1.14441e-005 -3.33786e-006 -25.1519 -11.7761 -12.6897 3.8147e-006 3.8147e-006 -1.19209e-006 -26.1943 -2.78533e-007 2.62095e-007 15.5776 -0.000396728 -4.79862e-006 5.38807e-036 6.21202e-018 -4.96962e-017 9.40367 1.03981 -6.51606 -11.676 -31.9557 36.7548 2.77012 -0.00605392 0.00208092 2.2604 -19.6811 -0.515517 9.40405 1.03969 6.5162 -11.5222 31.6903 -36.2978 2.77013 -0.00603104 -0.00202179 2.79916 20.3047 0.13396 
-1.19167e-005 0 -342.55 -0 -90 -0 0.001396 -24.7444 40.2001 90.0009 0.00020413 65.6092 -3.57628e-007 4.36557e-011 1.13687e-013 -90 9.05519e-006 -101.409 -6.35337 -3.85849 1.28699 -166.064 -10.7519 -27.7338 10.383 -0.00817156 -7.53403e-005 13.5535 3.17935 -3.41562 10.3817 -0.00803498 0.000203609 12.7728 2.05768 -3.6613 10.3842 -0.00817013 0.000713348 17.0649 -2.28371 -0.456437 10.3828 -0.00794697 0.00186729 17.1655 -10.3479 -4.29261 9.53674e-006 -1.32322e-005 -8.75617 -106.219 -5.62833 -174.988 19.7638 1.90735e-006 -8.9407e-007 -93.5811 -0.000104252 0.00325978 18.6534 4.29153e-006 2.6226e-006 21.9987 11.8743 6.75404 5.09144 13.9567 -9.75232e-007 99.8238 2.6626 -4.27712 4.288 1.42109e-014 -1.90735e-006 21.5428 0.000588546 0.000630528 3.85804 -7.62939e-006 1.43052e-006 -2.5 -7.54593e-006 8.2624e-006 -1.52588e-005 1.3113e-005 8.75617 -110.064 -15.473 167.291 19.7638 1.90735e-006 2.98023e-007 -96.265 0.000193188 -0.00354175 18.6534 -7.6294e-006 1.78814e-007 17.2047 -12.8279 -6.73384 5.09144 13.9567 -1.92368e-006 103.857 -3.71235 3.3456 4.28801 1.14441e-005 2.86102e-006 21.7201 0.00246678 0.00062624 3.858 -5.72205e-006 4.76835e-007 -2.5 -1.0351e-005 3.99808e-007 8.96734 -0.0062148 -1.81503 7.55982 2.82078 18.9195 8.04382 -0.00629157 9.15527e-005 1.99309 -0.323279 -6.08545 8.04383 -0.00629949 9.79739e-005 7.1226 -0.0937209 -2.60941 8.04404 -0.00830781 0.000174521 14.2425 -1.45447 -3.37698 10.6701 1.06797 2.0258e-006 2.04478 0.00195634 0.000978017 -4.28411 -3.99842 -9.04586 -179.867 -77.104 113.977 19.0491 -2.10851e-006 6.48499e-005 54.9744 -67.9607 -88.0291 10.3706 2.67029e-005 -9.53673e-007 -179.439 1.39765e-008 3.84022e-008 22.8631 1.52588e-005 -3.8147e-006 57.3877 20.1574 32.0136 6.48257 0.103603 0.504504 -32.1457 -12.7031 -8.09864 3.66843 -3.8147e-006 2.32458e-006 13.3619 2.53662e-006 1.09142e-005 -4.29328 -3.97998 9.04983 178.44 83.1859 -127.077 19.0492 -9.38772e-007 2.67029e-005 72.7181 27.7134 93.425 10.3705 -5.72204e-006 -1.1921e-006 -99.3268 0.00035658 -0.0045247 22.8631 3.8147e-006 4.76837e-007 20.2782 -12.3511 -8.34794 6.48255 0.103668 -0.504497 -41.266 15.049 9.47833 3.66846 -1.14441e-005 9.53675e-006 5.70822 0.000133186 0.000169562 7.52527 -0.00664006 2.71655e-005 -10.3403 -0.23997 -0.728558 8.47868 -0.00548315 9.13594e-005 1.09922 -0.623369 -0.185064 8.41604 8.58307e-006 5.96046e-007 -96.945 -4.9924 -0.87256 -1.90735e-006 1.52588e-005 -1.49012e-006 -23.1098 1.37701e-015 90 2.82864e-009 -0.5 -5.17573e-008 32.3287 90 57.6713 -3.8147e-006 1.14441e-005 1.60956e-006 -105.473 7.01671e-015 -180 2.89036 13.9431 3.88993 -22.9998 1.37081e-015 90 -3.8147e-006 1.14441e-005 1.60956e-006 -73.9361 -7.01671e-015 -180 -7.62939e-006 -1.90735e-006 1.60397e-006 -142.546 3.24634e-005 -2.63825e-005 -5.68434e-014 5.68434e-014 -1.34762e-006 163.557 -3.79508 -6.46466 4.54747e-013 1.04904e-005 -4.76838e-007 -13.02 -7.92868 -4.48299 3.8147e-006 -1.14441e-005 -3.33786e-006 -25.1956 -11.748 -12.6582 3.8147e-006 3.8147e-006 -1.19209e-006 -26.1943 -9.8877e-007 -1.36112e-007 15.5776 -0.000396728 -4.79866e-006 1.59028e-015 7.45443e-017 1.98785e-016 9.40367 1.03981 -6.51606 -7.44401 -38.1485 46.6064 2.77012 -0.00605392 0.00208092 2.21102 -24.6899 -0.530021 9.40405 1.03969 6.5162 -7.16303 36.915 -42.9288 2.77013 -0.00603104 -0.00202179 6.43087 29.0323 -2.25328 
